<?xml version="1.0" encoding="UTF-8"?>
<!DOCTYPE svg PUBLIC "-//W3C//DTD SVG 1.1//EN" "http://www.w3.org/Graphics/SVG/1.1/DTD/svg11.dtd">
<svg xmlns="http://www.w3.org/2000/svg" version="1.1" width="1080px" height="1080px" style="shape-rendering:geometricPrecision; text-rendering:geometricPrecision; image-rendering:optimizeQuality; fill-rule:evenodd; clip-rule:evenodd" xmlns:xlink="http://www.w3.org/1999/xlink">
<g><path style="opacity:0.967" fill="#4f496e" d="M 388.5,38.5 C 467.202,36.6091 531.369,65.9425 581,126.5C 630.151,194.424 640.817,268.091 613,347.5C 578.417,428.387 517.583,476.22 430.5,491C 309.79,500.593 227.957,449.093 185,336.5C 158.736,242.704 180.57,162.204 250.5,95C 290.246,60.9627 336.246,42.1294 388.5,38.5 Z"/></g>
<g><path style="opacity:1" fill="#9f8afa" d="M 377.5,58.5 C 453.058,53.2756 515.225,79.2756 564,136.5C 612.576,202.33 621.576,273.33 591,349.5C 556.826,420.309 500.66,461.142 422.5,472C 321.096,479.568 249.929,437.068 209,344.5C 180.459,267.232 191.459,196.232 242,131.5C 278.316,90.7584 323.483,66.425 377.5,58.5 Z"/></g>
<g><path style="opacity:0.966" fill="#4f496e" d="M 771.5,220.5 C 822.104,216.862 864.604,233.528 899,270.5C 936.222,317.17 944.222,368.503 923,424.5C 899.534,475.279 860.034,504.779 804.5,513C 741.403,517.204 693.237,492.704 660,439.5C 640.66,404.388 635.994,367.388 646,328.5C 665.834,266.826 707.668,230.826 771.5,220.5 Z"/></g>
<g><path style="opacity:1" fill="#9f8afa" d="M 776.5,239.5 C 831.812,238.055 873.312,261.055 901,308.5C 923.738,358.191 918.738,404.858 886,448.5C 848.924,488.731 803.757,502.231 750.5,489C 697.968,470.124 668.134,432.957 661,377.5C 659.029,325.268 679.863,285.102 723.5,257C 740.072,247.42 757.738,241.587 776.5,239.5 Z"/></g>
<g><path style="opacity:0.977" fill="#4f496e" d="M 396.5,496.5 C 430.964,496.033 465.297,497.866 499.5,502C 555.827,510.672 606.161,532.672 650.5,568C 671.666,586.501 689.166,608.001 703,632.5C 703.725,633.059 704.558,633.392 705.5,633.5C 712.556,631.138 719.223,627.972 725.5,624C 710.204,619.45 697.37,611.284 687,599.5C 682.887,593.609 679.554,587.276 677,580.5C 672.949,563.644 677.782,550.144 691.5,540C 702.995,533.279 715.329,528.946 728.5,527C 789.575,521.106 848.908,528.772 906.5,550C 984.027,583.192 1037.19,639.359 1066,718.5C 1074.73,762.237 1066.07,802.237 1040,838.5C 1022.23,859.314 1000.07,873.48 973.5,881C 962.639,883.755 951.639,885.755 940.5,887C 921.833,887.667 903.167,887.667 884.5,887C 863.252,885.441 843.585,879.107 825.5,868C 819.44,863.086 814.606,857.253 811,850.5C 806.892,838.734 803.725,826.734 801.5,814.5C 795.02,814.435 788.687,815.268 782.5,817C 812.199,898.578 790.199,961.912 716.5,1007C 703.409,1013.88 690.076,1020.21 676.5,1026C 648.219,1029.99 619.885,1033.66 591.5,1037C 560.183,1038.53 528.85,1038.86 497.5,1038C 398.857,1033.14 300.19,1028.81 201.5,1025C 173.992,1024.06 146.659,1021.4 119.5,1017C 71.1791,1006.46 38.0125,978.29 20,932.5C -6.13126,865.018 0.535409,801.018 40,740.5C 44.726,729.381 49.726,718.381 55,707.5C 55.6667,705.833 55.6667,704.167 55,702.5C 33.7226,654.774 40.0559,611.108 74,571.5C 93.1228,553.363 115.956,543.529 142.5,542C 172.829,539.629 200.829,546.463 226.5,562.5C 244.338,552.08 262.338,541.913 280.5,532C 316.933,512.399 355.6,500.566 396.5,496.5 Z"/></g>
<g><path style="opacity:1" fill="#9f8afa" d="M 385.5,516.5 C 429.829,514.509 473.829,517.343 517.5,525C 564.24,535.87 605.906,556.537 642.5,587C 658.97,602.624 672.97,620.124 684.5,639.5C 681.78,641.111 678.78,641.944 675.5,642C 655.1,643.074 634.767,642.408 614.5,640C 588.061,634.845 561.728,629.179 535.5,623C 516.472,619.472 497.305,616.972 478,615.5C 454.474,615.598 435.14,624.598 420,642.5C 402.859,681.58 406.526,718.58 431,753.5C 462.761,787.303 501.595,808.47 547.5,817C 614.141,827.257 680.808,827.59 747.5,818C 752.533,817.171 757.533,817.338 762.5,818.5C 792.521,894.614 772.188,952.781 701.5,993C 693.288,997.273 684.955,1001.27 676.5,1005C 649.591,1009.54 622.591,1013.54 595.5,1017C 564.538,1019.33 533.538,1020 502.5,1019C 472.508,1017.19 442.508,1015.52 412.5,1014C 341.132,1012.03 269.798,1009.2 198.5,1005.5C 169.137,1004.9 140.137,1001.4 111.5,995C 77.4946,984.33 53.6612,962.497 40,929.5C 20.8482,886.031 18.5148,841.698 33,796.5C 44.9228,772.987 56.5894,749.321 68,725.5C 76.4459,733.946 85.2792,742.779 94.5,752C 110.069,764.952 127.736,773.952 147.5,779C 188.355,783.16 223.188,770.66 252,741.5C 272.1,716.464 280.767,687.798 278,655.5C 275.636,625.125 264.302,598.792 244,576.5C 243.333,575.833 243.333,575.167 244,574.5C 267.104,561.363 290.604,548.863 314.5,537C 337.594,527.814 361.261,520.98 385.5,516.5 Z"/></g>
<g><path style="opacity:1" fill="#9f8afa" d="M 741.5,544.5 C 793.522,542.226 844.189,549.393 893.5,566C 964.938,595.105 1015.44,645.272 1045,716.5C 1051.13,735.204 1052.13,754.204 1048,773.5C 1037.34,824.498 1006.5,854.998 955.5,865C 928.549,869.208 901.549,869.541 874.5,866C 860.789,864.076 848.122,859.409 836.5,852C 830.521,846.877 827.021,840.377 826,832.5C 823.127,820.003 819.793,807.67 816,795.5C 811.024,793.543 805.857,793.043 800.5,794C 762.133,797.7 723.8,801.7 685.5,806C 641.286,807.737 597.286,805.403 553.5,799C 520.77,792.797 491.103,779.797 464.5,760C 432.684,734.217 421.85,701.383 432,661.5C 437.039,648.799 446.206,640.632 459.5,637C 465.85,635.071 472.35,634.238 479,634.5C 494.285,635.302 509.451,637.136 524.5,640C 550.552,645.463 576.552,651.129 602.5,657C 626.991,661.234 651.658,662.567 676.5,661C 699.97,657.76 721.637,649.76 741.5,637C 748.158,632.515 753.158,626.681 756.5,619.5C 755.606,615.095 753.273,611.595 749.5,609C 732.971,607.397 718.304,601.397 705.5,591C 689.125,572.227 692.458,558.561 715.5,550C 724.186,547.564 732.853,545.731 741.5,544.5 Z"/></g>
<g><path style="opacity:1" fill="#9f89fa" d="M 147.5,560.5 C 223.548,563.049 260.714,602.382 259,678.5C 253.917,717.577 232.75,743.411 195.5,756C 169.446,765.577 144.779,762.91 121.5,748C 85.5962,725.372 65.5962,692.872 61.5,650.5C 63.2763,621.784 74.6096,597.617 95.5,578C 111.34,567.442 128.673,561.609 147.5,560.5 Z"/></g>
</svg>
